<svg width="52" height="53" viewBox="0 0 52 53" fill="none" xmlns="http://www.w3.org/2000/svg">
<path id="Shape" fill-rule="evenodd" clip-rule="evenodd" d="M39.8667 40.3436C47.301 40.3436 52 34.0214 52 23.9899C52 10.3437 41.5458 0.934814 26.4604 0.934814C10.7656 0.934814 0 11.5215 0 26.9411C0 42.7398 10.549 52.9203 27.0292 52.9339C29.885 52.9483 32.7334 52.6395 35.5198 52.0133C36.6503 51.7403 37.3561 50.615 37.1097 49.4787C36.8632 48.3424 35.7546 47.6105 34.6125 47.8301C32.1806 48.2585 29.7151 48.4669 27.2458 48.4528C13.6906 48.4528 4.98332 40.1406 4.98332 27.1171C4.98332 14.3779 13.7854 5.37525 26.1354 5.37525C38.6208 5.37525 47.0708 12.9159 47.0708 24.1929C47.0708 31.2597 44.6875 35.8084 40.9365 35.8084C38.7698 35.8084 37.5646 34.4953 37.5646 32.3157V14.8112H32.1615V18.5747H31.6198C30.374 15.8265 27.5438 14.1478 24.2125 14.1478C17.7261 14.1478 13.2844 19.414 13.2844 26.9817C13.2844 34.8608 17.699 40.1541 24.3073 40.1541C28.0177 40.1541 30.7802 38.4348 32.1208 35.294H32.6625C33.1635 38.313 36.0615 40.3436 39.8667 40.3436ZM25.3094 35.1451C21.4771 35.1451 19.1208 32.1126 19.1208 27.1036C19.1208 22.081 21.4365 19.1297 25.3771 19.1297C29.3448 19.1297 31.8906 22.1758 31.8906 27.1036C31.8906 32.0314 29.3448 35.1451 25.3094 35.1451Z" fill="white"/>
</svg>
